<svg xmlns="http://www.w3.org/2000/svg" xmlns:xlink="http://www.w3.org/1999/xlink" width="41.354" height="41.447" viewBox="0 0 41.354 41.447">
  <defs>
    <clipPath id="clip-path">
      <rect id="사각형_37" data-name="사각형 37" width="40.649" height="40.744" fill="#fff"/>
    </clipPath>
  </defs>
  <g id="그룹_33" data-name="그룹 33" transform="translate(-6.253 -2.122) rotate(1)">
    <g id="그룹_32" data-name="그룹 32" transform="translate(7 2)" clip-path="url(#clip-path)">
      <path id="패스_47" data-name="패스 47" d="M30.4,40.744a20.441,20.441,0,0,1-6.825-1.9C12.958,33.679,5.177,25.823.925,14.692a20.148,20.148,0,0,1-.894-3.776A2.51,2.51,0,0,1,.275,9.38,30.229,30.229,0,0,1,7.424.754a2.394,2.394,0,0,1,3.867.518c1.764,2.683,3.466,5.419,4.991,8.242,1.1,2.043.815,2.8-.909,4.356a15.167,15.167,0,0,1-1.485,1.262c-.533.37-.518.748-.3,1.289a18.744,18.744,0,0,0,10.72,10.7.93.93,0,0,0,1.28-.347c.573-.733,1.209-1.42,1.851-2.1a2.349,2.349,0,0,1,2.848-.65,46.887,46.887,0,0,1,4.228,2.115c1.582.925,3.094,1.974,4.61,3.006,1.421.968,2.239,2.468.674,4.289a32.205,32.205,0,0,1-8.381,6.933,5.362,5.362,0,0,1-1.019.373" transform="translate(0 0)" fill="#fff"/>
    </g>
  </g>
</svg>
